<?xml version="1.0" encoding="utf-8"?>
<!-- <svg xmlns="http://www.w3.org/2000/svg" width="500" height="300">
    <path d="M480 150 C 300 200, 200 150, 20 200 C 15 150, 15 150, 20 100 C 200 100, 300 150, 480 150 Z" stroke="black" fill="red"></path>
</svg>
 -->
<!-- <svg version="1.1" id="SVGs" width="361" height="361" viewBox="0 0 361 361" overflow="visible" enable-background="new 0 0 361 361" xmlns="http://www.w3.org/2000/svg">
  <path fill="#999" stroke="#000000" stroke-linecap="round" stroke-linejoin="round" 
    d="M 120.807 239.816
       L 120.807 204.107
       C 120.807 190.779, 128.752 185.925, 139.043 196.234
       C 149.354 206.543, 155.408 193.199, 155.408 180.471
       C 155.408 167.743, 149.353 154.416, 139.043 164.725
       C 128.752 175.017, 120.807 170.18, 120.807 156.835
       L 120.807 121.144
       l -100 0 Z"/>
</svg>
 -->
<svg version="1.1" id="SVGs" width="361" height="361" viewBox="0 0 361 361" overflow="visible" enable-background="new 0 0 361 361" xmlns="http://www.w3.org/2000/svg">
  <path fill="#999" stroke="#000000" stroke-linecap="round" stroke-linejoin="round"
    d="M 120.807 239.816
       L 120.807 204.107 
       C 120.807 190.779 128.752 185.925 139.043 196.234 
       C 149.354 206.543 155.408 193.199 155.408 180.471 
       C 155.408 167.743 149.353 154.416 139.043 164.725 
       C 128.752 175.017 120.807 170.18 120.807 156.835 
       L 120.807 121.144 
       M 121.082 239.845 
       L 156.863 239.845 
       C 170.191 239.845 175.046 231.9 164.736 221.609 
       C 154.445 211.298 167.772 205.246 180.5 205.246 
       C 193.228 205.246 206.554 211.299 196.263 221.609 
       C 185.954 231.9 190.808 239.845 204.136 239.845 
       L 239.917 239.845 "/>
<!--        

       M 120.763 121.1 
       L 156.544 121.1 
       C 169.872 121.1 174.727 113.155 164.417 102.864 
       C 154.126 92.553 167.453 86.501 180.181 86.501 
       C 192.909 86.501 206.235 92.554 195.944 102.864 
       C 185.635 113.155 190.489 121.1 203.817 121.1 
       L 239.598 121.1 
        M 239.937 239.747 
       L 239.937 204.038 
       C 239.937 190.71 247.882 185.856 258.173 196.165 
       C 268.484 206.474 274.538 193.13 274.538 180.402 
       C 274.538 167.674 268.483 154.347 258.173 164.656 
       C 247.882 174.948 239.937 170.111 239.937 156.766 
       L 239.937 121.075
       "/>
 -->
</svg>
