<?xml version="1.0" encoding="utf-8"?>
<svg version="1.1" id="SVGs" width="361" height="361" viewBox="0 0 361 361" overflow="visible" enable-background="new 0 0 361 361" xmlns="http://www.w3.org/2000/svg">
  <path fill="none" stroke="#000000" stroke-linecap="round" stroke-linejoin="round" d="M 121.036 121.126 L 156.817 121.126 C 170.145 121.126 175 113.181 164.69 102.89 C 154.399 92.579 167.726 86.527 180.454 86.527 C 193.182 86.527 206.508 92.58 196.217 102.89 C 185.908 113.181 190.762 121.126 204.09 121.126 L 239.871 121.126"/>
  <path fill="none" stroke="#000000" stroke-linecap="round" stroke-linejoin="round" d="M 239.926 239.583 L 239.926 203.874 C 239.926 190.546 247.871 185.692 258.162 196.001 C 268.473 206.31 274.527 192.966 274.527 180.238 C 274.527 167.51 268.472 154.183 258.162 164.492 C 247.871 174.784 239.926 169.947 239.926 156.602 L 239.926 120.911"/>
  <line style="stroke: rgb(0, 0, 0);" x1="121.27078247070312" y1="120.87539672851562" x2="121.92062377929688" y2="239.4072723388672"/>
  <path fill="none" stroke="#000000" stroke-linecap="round" stroke-linejoin="round" d="M 121.626 238.897 L 157.407 238.897 C 170.735 238.897 175.59 230.952 165.28 220.661 C 154.989 210.35 168.316 204.298 181.044 204.298 C 193.772 204.298 207.098 210.351 196.807 220.661 C 186.498 230.952 191.352 238.897 204.68 238.897 L 240.461 238.897"/>
</svg>