<?xml version="1.0" encoding="utf-8"?>
<svg version="1.1" id="SVGs" width="361" height="361" viewBox="0 0 361 361" overflow="visible" enable-background="new 0 0 361 361" xmlns="http://www.w3.org/2000/svg">
  <path fill="none" stroke="#000000" stroke-linecap="round" stroke-linejoin="round" d="M 121.082 239.845 L 156.863 239.845 C 170.191 239.845 175.046 231.9 164.736 221.609 C 154.445 211.298 167.772 205.246 180.5 205.246 C 193.228 205.246 206.554 211.299 196.263 221.609 C 185.954 231.9 190.808 239.845 204.136 239.845 L 239.917 239.845"/>
  <path fill="none" stroke="#000000" stroke-linecap="round" stroke-linejoin="round" d="M 121.13 239.715 L 121.13 204.006 C 121.13 190.678 129.075 185.824 139.366 196.133 C 149.677 206.442 155.731 193.098 155.731 180.37 C 155.731 167.642 149.676 154.315 139.366 164.624 C 129.075 174.916 121.13 170.079 121.13 156.734 L 121.13 121.043"/>
  <line style="stroke: rgb(0, 0, 0);" x1="239.45240783691406" y1="120.91659545898438" x2="239.6611328125" y2="239.788330078125"/>
  <path fill="none" stroke="#000000" stroke-linecap="round" stroke-linejoin="round" d="M 121.036 121.126 L 156.817 121.126 C 170.145 121.126 175 113.181 164.69 102.89 C 154.399 92.579 167.726 86.527 180.454 86.527 C 193.182 86.527 206.508 92.58 196.217 102.89 C 185.908 113.181 190.762 121.126 204.09 121.126 L 239.871 121.126"/>
</svg>