<?xml version="1.0" encoding="utf-8"?>
<!-- Generator: Adobe Illustrator 12.0.1, SVG Export Plug-In . SVG Version: 6.00 Build 51448)  -->
<!DOCTYPE svg PUBLIC "-//W3C//DTD SVG 1.1//EN" "http://www.w3.org/Graphics/SVG/1.1/DTD/svg11.dtd" [
	<!ENTITY ns_svg "http://www.w3.org/2000/svg">
	<!ENTITY ns_xlink "http://www.w3.org/1999/xlink">
]>
<svg  version="1.1" id="SVGs" xmlns="&ns_svg;" xmlns:xlink="&ns_xlink;" width="361" height="361" viewBox="0 0 361 361"
	 overflow="visible" enable-background="new 0 0 361 361" xml:space="preserve">
<path fill="none" stroke="#000000" stroke-linecap="round" stroke-linejoin="round" d="M0.5,121.173h37.564
	c13.328,0,18.182-7.945,7.873-18.237C35.628,92.627,48.973,86.572,61.7,86.572s26.055,6.055,15.764,16.364
	c-10.309,10.292-5.455,18.237,7.873,18.237h35.745h35.781c13.328,0,18.183,7.927,7.873,18.236
	c-10.291,10.309,3.036,16.364,15.764,16.364c12.728,0,26.054-6.056,15.763-16.364c-10.309-10.309-5.455-18.236,7.873-18.236h35.781
	h35.746c13.328,0,18.182-7.945,7.873-18.237c-10.291-10.309,3.035-16.364,15.764-16.364c12.727,0,26.072,6.055,15.764,16.364
	c-10.311,10.292-5.455,18.237,7.873,18.237H360.5 M239.917,360.5v-37.6c0-13.326,7.945-18.182,18.236-7.873
	c10.311,10.311,16.365-3.035,16.365-15.762c0-12.729-6.055-26.055-16.365-15.746c-10.291,10.291-18.236,5.436-18.236-7.891v-35.783
	v-35.709c0-13.328,7.945-18.182,18.236-7.873c10.311,10.309,16.365-3.035,16.365-15.763c0-12.728-6.055-26.055-16.365-15.746
	c-10.291,10.292-18.236,5.455-18.236-7.89v-35.691V85.391c0-13.345-7.926-18.182-18.234-7.891
	c-10.291,10.309-16.363-3.018-16.363-15.746c0-12.727,6.072-26.072,16.363-15.763c10.309,10.309,18.234,5.454,18.234-7.873V0.5
	 M0.5,239.845h37.564c13.328,0,18.182,7.928,7.873,18.236s3.036,16.363,15.763,16.363s26.055-6.055,15.764-16.363
	c-10.309-10.309-5.455-18.236,7.873-18.236h35.745h35.781c13.328,0,18.183-7.945,7.873-18.236
	c-10.291-10.311,3.036-16.363,15.764-16.363c12.728,0,26.054,6.053,15.763,16.363c-10.309,10.291-5.455,18.236,7.873,18.236h35.781
	h35.746c13.328,0,18.182,7.928,7.873,18.236c-10.291,10.309,3.035,16.363,15.764,16.363c12.727,0,26.072-6.055,15.764-16.363
	c-10.311-10.309-5.455-18.236,7.873-18.236H360.5 M121.082,360.5v-37.6c0-13.326,7.927-18.182,18.235-7.873
	c10.291,10.311,16.364-3.035,16.364-15.762c0-12.729-6.073-26.055-16.364-15.746c-10.309,10.291-18.235,5.436-18.235-7.891v-35.783
	v-35.709c0-13.328-7.945-18.182-18.236-7.873c-10.31,10.309-16.364-3.035-16.364-15.763c0-12.728,6.055-26.055,16.364-15.746
	c10.291,10.292,18.236,5.455,18.236-7.89v-35.691V85.391c0-13.345,7.927-18.182,18.235-7.891
	c10.291,10.309,16.364-3.018,16.364-15.746c0-12.727-6.073-26.072-16.364-15.763c-10.309,10.309-18.235,5.454-18.235-7.873V0.5
	 M358.681,2.318H2.318v356.363h356.363V2.318z"/>
</svg>
