<?xml version="1.0" encoding="utf-8"?>
<svg viewBox="28.61444091796875 -631.0240478515625 2000 1000" xmlns="http://www.w3.org/2000/svg">
  <path fill="none" stroke="#000000" stroke-linecap="round" stroke-linejoin="round" d="M 239.183 205.746 L 239.183 243.346 C 239.183 256.672 247.128 261.528 257.419 251.219 C 267.73 240.908 273.784 254.254 273.784 266.981 C 273.784 279.71 267.729 293.036 257.419 282.727 C 247.128 272.436 239.183 277.291 239.183 290.618 L 239.183 326.401 M 120.348 326.401 L 156.129 326.401 C 169.457 326.401 174.312 334.346 164.002 344.637 C 153.711 354.948 167.038 361 179.766 361 C 192.494 361 205.82 354.947 195.529 344.637 C 185.22 334.346 190.074 326.401 203.402 326.401 L 239.183 326.401 M 120.348 205.746 L 120.348 243.346 C 120.348 256.672 128.275 261.528 138.583 251.219 C 148.874 240.908 154.947 254.254 154.947 266.981 C 154.947 279.71 148.874 293.036 138.583 282.727 C 128.274 272.436 120.348 277.291 120.348 290.618 L 120.348 326.401" transform="matrix(-1, 0, 0, -1, 394.132019, 566.745959)"/>
  <path fill="none" stroke="#000000" stroke-linecap="round" stroke-linejoin="round" d="M 17.376 342.984 L 54.94 342.984 C 68.268 342.984 73.122 335.056 62.813 324.748 C 52.504 314.44 65.849 308.385 78.576 308.385 C 91.303 308.385 104.631 314.44 94.34 324.748 C 84.031 335.057 88.885 342.984 102.213 342.984 L 137.958 342.984 M 137.958 222.329 L 137.958 259.929 C 137.958 273.255 145.885 278.111 156.193 267.802 C 166.484 257.491 172.557 270.837 172.557 283.564 C 172.557 296.293 166.484 309.619 156.193 299.31 C 145.884 289.019 137.958 293.874 137.958 307.201 L 137.958 342.984" transform="matrix(0, -1, 1, 0, -187.690013, 377.622998)"/>
  <path fill="none" stroke="#000000" stroke-linecap="round" stroke-linejoin="round" d="M 358.382 206.259 L 358.382 243.859 C 358.382 257.185 366.327 262.042 376.618 251.732 C 386.929 241.421 392.983 254.767 392.983 267.494 C 392.983 280.223 386.928 293.549 376.618 283.24 C 366.327 272.949 358.382 277.805 358.382 291.131 L 358.382 326.914 M 239.547 326.914 L 275.328 326.914 C 288.656 326.914 293.511 334.859 283.201 345.15 C 272.91 355.461 286.237 361.513 298.965 361.513 C 311.693 361.513 325.019 355.46 314.728 345.15 C 304.419 334.859 309.273 326.914 322.601 326.914 L 358.382 326.914 M 239.547 206.259 L 239.547 243.859 C 239.547 257.185 247.474 262.042 257.782 251.732 C 268.073 241.421 274.146 254.767 274.146 267.494 C 274.146 280.223 268.073 293.549 257.782 283.24 C 247.473 272.949 239.547 277.805 239.547 291.131 L 239.547 326.914" transform="matrix(-1, 0, 0, -1, 632.529996, 567.771974)"/>
  <path fill="none" stroke="#000000" stroke-linecap="round" stroke-linejoin="round" d="M 477.358 206.259 L 477.358 243.859 C 477.358 257.185 485.303 262.042 495.594 251.732 C 505.905 241.421 511.959 254.767 511.959 267.494 C 511.959 280.223 505.904 293.549 495.594 283.24 C 485.303 272.949 477.358 277.805 477.358 291.131 L 477.358 326.914 M 358.523 326.914 L 394.304 326.914 C 407.632 326.914 412.487 334.859 402.177 345.15 C 391.886 355.461 405.213 361.513 417.941 361.513 C 430.669 361.513 443.995 355.46 433.704 345.15 C 423.395 334.859 428.249 326.914 441.577 326.914 L 477.358 326.914 M 358.523 206.259 L 358.523 243.859 C 358.523 257.185 366.45 262.042 376.758 251.732 C 387.049 241.421 393.122 254.767 393.122 267.494 C 393.122 280.223 387.049 293.549 376.758 283.24 C 366.449 272.949 358.523 277.805 358.523 291.131 L 358.523 326.914" transform="matrix(-1, 0, 0, -1, 870.482067, 567.771974)"/>
  <path fill="none" stroke="#000000" stroke-linecap="round" stroke-linejoin="round" d="M 154.316 85.023 L 154.316 122.623 C 154.316 135.949 162.261 140.806 172.552 130.496 C 182.863 120.185 188.917 133.531 188.917 146.258 C 188.917 158.987 182.862 172.313 172.552 162.004 C 162.261 151.713 154.316 156.569 154.316 169.895 L 154.316 205.678 M 35.481 205.678 L 71.262 205.678 C 84.59 205.678 89.445 213.623 79.135 223.914 C 68.844 234.225 82.171 240.277 94.899 240.277 C 107.627 240.277 120.953 234.224 110.662 223.914 C 100.353 213.623 105.207 205.678 118.535 205.678 L 154.316 205.678 M 35.481 85.023 L 35.481 122.623 C 35.481 135.949 43.408 140.806 53.716 130.496 C 64.007 120.185 70.08 133.531 70.08 146.258 C 70.08 158.987 64.007 172.313 53.716 162.004 C 43.407 151.713 35.481 156.569 35.481 169.895 L 35.481 205.678" transform="matrix(0, -1, 1, 0, -50.451, 274.848993)"/>
  <path fill="none" stroke="#000000" stroke-linecap="round" stroke-linejoin="round" d="M 43.61 -484.55 L 81.174 -484.55 C 94.502 -484.55 99.356 -492.478 89.047 -502.786 C 78.738 -513.094 92.083 -519.149 104.81 -519.149 C 117.537 -519.149 130.865 -513.094 120.574 -502.786 C 110.265 -492.477 115.119 -484.55 128.447 -484.55 L 164.192 -484.55 M 164.192 -605.205 L 164.192 -567.605 C 164.192 -554.279 172.119 -549.423 182.427 -559.732 C 192.718 -570.043 198.791 -556.697 198.791 -543.97 C 198.791 -531.241 192.718 -517.915 182.427 -528.224 C 172.118 -538.515 164.192 -533.66 164.192 -520.333 L 164.192 -484.55"/>
  <path fill="none" stroke="#000000" stroke-linecap="round" stroke-linejoin="round" d="M 254.704 -243.988 L 292.268 -243.988 C 305.596 -243.988 310.45 -251.916 300.141 -262.224 C 289.832 -272.532 303.177 -278.587 315.904 -278.587 C 328.631 -278.587 341.959 -272.532 331.668 -262.224 C 321.359 -251.915 326.213 -243.988 339.541 -243.988 L 375.286 -243.988 M 375.286 -364.643 L 375.286 -327.043 C 375.286 -313.717 383.213 -308.861 393.521 -319.17 C 403.812 -329.481 409.885 -316.135 409.885 -303.408 C 409.885 -290.679 403.812 -277.353 393.521 -287.662 C 383.212 -297.953 375.286 -293.098 375.286 -279.771 L 375.286 -243.988" transform="matrix(-1, 0, 0, -1, 664.588932, -608.631)"/>
  <path fill="none" stroke="#000000" stroke-linecap="round" stroke-linejoin="round" d="M 28.486 -260.948 L 66.05 -260.948 C 79.378 -260.948 84.232 -268.876 73.923 -279.184 C 63.614 -289.492 76.959 -295.547 89.686 -295.547 C 102.413 -295.547 115.741 -289.492 105.45 -279.184 C 95.141 -268.875 99.995 -260.948 113.323 -260.948 L 149.068 -260.948 M 149.068 -381.603 L 149.068 -344.003 C 149.068 -330.677 156.995 -325.821 167.303 -336.13 C 177.594 -346.441 183.667 -333.095 183.667 -320.368 C 183.667 -307.639 177.594 -294.313 167.303 -304.622 C 156.994 -314.913 149.068 -310.058 149.068 -296.731 L 149.068 -260.948" transform="matrix(0, -1, 1, 0, 427.352024, -215.199021)"/>
  <path fill="none" stroke="#000000" stroke-linecap="round" stroke-linejoin="round" d="M 252.36 -398.099 L 252.36 -360.499 C 252.36 -347.173 260.305 -342.316 270.596 -352.626 C 280.907 -362.937 286.961 -349.591 286.961 -336.864 C 286.961 -324.135 280.906 -310.809 270.596 -321.118 C 260.305 -331.409 252.36 -326.553 252.36 -313.227 L 252.36 -277.444 M 133.525 -277.444 L 169.306 -277.444 C 182.634 -277.444 187.489 -269.499 177.179 -259.208 C 166.888 -248.897 180.215 -242.845 192.943 -242.845 C 205.671 -242.845 218.997 -248.898 208.706 -259.208 C 198.397 -269.499 203.251 -277.444 216.579 -277.444 L 252.36 -277.444 M 133.525 -398.099 L 133.525 -360.499 C 133.525 -347.173 141.452 -342.316 151.76 -352.626 C 162.051 -362.937 168.124 -349.591 168.124 -336.864 C 168.124 -324.135 162.051 -310.809 151.76 -321.118 C 141.451 -331.409 133.525 -326.553 133.525 -313.227 L 133.525 -277.444" transform="matrix(-1, 0, 0, -1, 420.485979, -640.943992)"/>
  <path fill="none" stroke="#000000" stroke-linecap="round" stroke-linejoin="round" d="M 164.544 -519.423 L 164.544 -481.823 C 164.544 -468.497 172.489 -463.64 182.78 -473.95 C 193.091 -484.261 199.145 -470.915 199.145 -458.188 C 199.145 -445.459 193.09 -432.133 182.78 -442.442 C 172.489 -452.733 164.544 -447.877 164.544 -434.551 L 164.544 -398.768 M 45.709 -398.768 L 81.49 -398.768 C 94.818 -398.768 99.673 -390.823 89.363 -380.532 C 79.072 -370.221 92.399 -364.169 105.127 -364.169 C 117.855 -364.169 131.181 -370.222 120.89 -380.532 C 110.581 -390.823 115.435 -398.768 128.763 -398.768 L 164.544 -398.768 M 45.709 -519.423 L 45.709 -481.823 C 45.709 -468.497 53.636 -463.64 63.944 -473.95 C 74.235 -484.261 80.308 -470.915 80.308 -458.188 C 80.308 -445.459 74.235 -432.133 63.944 -442.442 C 53.635 -452.733 45.709 -447.877 45.709 -434.551 L 45.709 -398.768" transform="matrix(0, -1, 1, 0, 564.223013, -319.369014)"/>
  <path fill="none" stroke="#000000" stroke-linecap="round" stroke-linejoin="round" d="M 284.709 -604.831 L 284.709 -567.231 C 284.709 -553.905 292.654 -549.048 302.945 -559.358 C 313.256 -569.669 319.31 -556.323 319.31 -543.596 C 319.31 -530.867 313.255 -517.541 302.945 -527.85 C 292.654 -538.141 284.709 -533.285 284.709 -519.959 L 284.709 -484.176 M 165.874 -484.176 L 201.655 -484.176 C 214.983 -484.176 219.838 -476.231 209.528 -465.94 C 199.237 -455.629 212.564 -449.577 225.292 -449.577 C 238.02 -449.577 251.346 -455.63 241.055 -465.94 C 230.746 -476.231 235.6 -484.176 248.928 -484.176 L 284.709 -484.176 M 165.874 -604.831 L 165.874 -567.231 C 165.874 -553.905 173.801 -549.048 184.109 -559.358 C 194.4 -569.669 200.473 -556.323 200.473 -543.596 C 200.473 -530.867 194.4 -517.541 184.109 -527.85 C 173.8 -538.141 165.874 -533.285 165.874 -519.959 L 165.874 -484.176"/>
  <path fill="none" stroke="#000000" stroke-linecap="round" stroke-linejoin="round" d="M 268.285 -467.869 L 305.849 -467.869 C 319.177 -467.869 324.031 -475.797 313.722 -486.105 C 303.413 -496.413 316.758 -502.468 329.485 -502.468 C 342.212 -502.468 355.54 -496.413 345.249 -486.105 C 334.94 -475.796 339.794 -467.869 353.122 -467.869 L 388.867 -467.869 M 388.867 -588.524 L 388.867 -550.924 C 388.867 -537.598 396.794 -532.742 407.102 -543.051 C 417.393 -553.362 423.466 -540.016 423.466 -527.289 C 423.466 -514.56 417.393 -501.234 407.102 -511.543 C 396.793 -521.834 388.867 -516.979 388.867 -503.652 L 388.867 -467.869" transform="matrix(0, 1, -1, 0, -182.320993, -874.071932)"/>
  <path fill="none" stroke="#000000" stroke-linecap="round" stroke-linejoin="round" d="M 372.103 -483.671 L 372.103 -446.071 C 372.103 -432.745 380.048 -427.888 390.339 -438.198 C 400.65 -448.509 406.704 -435.163 406.704 -422.436 C 406.704 -409.707 400.649 -396.381 390.339 -406.69 C 380.048 -416.981 372.103 -412.125 372.103 -398.799 L 372.103 -363.016 M 253.268 -363.016 L 289.049 -363.016 C 302.377 -363.016 307.232 -355.071 296.922 -344.78 C 286.631 -334.469 299.958 -328.417 312.686 -328.417 C 325.414 -328.417 338.74 -334.47 328.449 -344.78 C 318.14 -355.071 322.994 -363.016 336.322 -363.016 L 372.103 -363.016 M 253.268 -483.671 L 253.268 -446.071 C 253.268 -432.745 261.195 -427.888 271.503 -438.198 C 281.794 -448.509 287.867 -435.163 287.867 -422.436 C 287.867 -409.707 281.794 -396.381 271.503 -406.69 C 261.194 -416.981 253.268 -412.125 253.268 -398.799 L 253.268 -363.016" transform="matrix(0, 1, -1, 0, -76.057958, -736.030018)"/>
  <path fill="none" stroke="#000000" stroke-linecap="round" stroke-linejoin="round" d="M 773.669 330.743 L 736.069 330.743 C 722.743 330.743 717.886 338.688 728.196 348.979 C 738.507 359.29 725.161 365.344 712.434 365.344 C 699.705 365.344 686.379 359.289 696.688 348.979 C 706.979 338.688 702.123 330.743 688.797 330.743 L 653.014 330.743 M 653.014 211.908 L 653.014 247.689 C 653.014 261.017 645.069 265.872 634.778 255.562 C 624.467 245.271 618.415 258.598 618.415 271.326 C 618.415 284.054 624.468 297.38 634.778 287.089 C 645.069 276.78 653.014 281.634 653.014 294.962 L 653.014 330.743 M 773.669 211.908 L 736.069 211.908 C 722.743 211.908 717.886 219.835 728.196 230.143 C 738.507 240.434 725.161 246.507 712.434 246.507 C 699.705 246.507 686.379 240.434 696.688 230.143 C 706.979 219.834 702.123 211.908 688.797 211.908 L 653.014 211.908 M 773.028 330.688 L 773.028 211.703"/>
  <line style="stroke: rgb(0, 0, 0);" x1="584.8829956054688" y1="51.05839920043945" x2="584.8829956054688" y2="51.05839920043945"/>
  <path fill="none" stroke="#000000" stroke-linecap="round" stroke-linejoin="round" d="M 792.452 331.065 L 830.015 331.065 C 843.343 331.065 848.197 323.137 837.888 312.829 C 827.58 302.521 840.924 296.466 853.651 296.466 C 866.378 296.466 879.706 302.521 869.415 312.829 C 859.106 323.138 863.96 331.065 877.288 331.065 L 913.033 331.065 M 913.033 210.41 L 913.033 248.01 C 913.033 261.336 920.96 266.192 931.268 255.883 C 941.559 245.572 947.632 258.918 947.632 271.645 C 947.632 284.374 941.559 297.7 931.268 287.391 C 920.96 277.1 913.033 281.955 913.033 295.282 L 913.033 331.065 M 913.203 211.07 L 791.752 210.723 M 792.445 331.132 L 792.098 210.376"/>
  <path fill="none" stroke="#000000" stroke-linecap="round" stroke-linejoin="round" d="M 1296.226 -233.031 L 1333.789 -233.031 C 1347.117 -233.031 1351.971 -240.959 1341.662 -251.267 C 1331.354 -261.575 1344.698 -267.63 1357.425 -267.63 C 1370.152 -267.63 1383.48 -261.575 1373.189 -251.267 C 1362.88 -240.958 1367.734 -233.031 1381.062 -233.031 L 1416.807 -233.031 M 1416.807 -353.686 L 1416.807 -316.086 C 1416.807 -302.76 1424.734 -297.904 1435.041 -308.213 C 1445.333 -318.524 1451.406 -305.178 1451.406 -292.451 C 1451.406 -279.722 1445.333 -266.396 1435.041 -276.705 C 1424.734 -286.996 1416.807 -282.141 1416.807 -268.814 L 1416.807 -233.031 M 1416.977 -353.026 L 1295.526 -353.373 M 1296.219 -232.964 L 1295.872 -353.72"/>
  <path fill="none" stroke="#000000" stroke-linecap="round" stroke-linejoin="round" d="M 849.893 -426.288 L 887.456 -426.288 C 900.784 -426.288 905.638 -434.216 895.329 -444.524 C 885.021 -454.832 898.365 -460.887 911.092 -460.887 C 923.819 -460.887 937.147 -454.832 926.856 -444.524 C 916.547 -434.215 921.401 -426.288 934.729 -426.288 L 970.474 -426.288 M 970.474 -546.943 L 970.474 -509.343 C 970.474 -496.017 978.401 -491.161 988.709 -501.47 C 999 -511.781 1005.073 -498.435 1005.073 -485.708 C 1005.073 -472.979 999 -459.653 988.709 -469.962 C 978.401 -480.253 970.474 -475.398 970.474 -462.071 L 970.474 -426.288 M 970.644 -546.283 L 849.193 -546.63 M 849.886 -426.221 L 849.539 -546.977" transform="matrix(0, 1, -1, 0, 440.534004, -1413.73199)"/>
  <path fill="none" stroke="#000000" stroke-linecap="round" stroke-linejoin="round" d="M 1862.672 122.809 L 1900.234 122.809 C 1913.562 122.809 1918.416 114.881 1908.108 104.573 C 1897.798 94.265 1911.144 88.21 1923.87 88.21 C 1936.598 88.21 1949.926 94.265 1939.635 104.573 C 1929.324 114.882 1934.178 122.809 1947.506 122.809 L 1983.251 122.809 M 1983.251 2.154 L 1983.251 39.754 C 1983.251 53.08 1991.178 57.936 2001.487 47.627 C 2011.777 37.316 2017.85 50.662 2017.85 63.389 C 2017.85 76.118 2011.777 89.444 2001.487 79.135 C 1991.178 68.844 1983.251 73.699 1983.251 87.026 L 1983.251 122.809 M 1983.422 2.814 L 1861.97 2.467 M 1862.665 122.876 L 1862.318 2.12" transform="matrix(-1, 0, 0, -1, 3879.81985, 124.995997)"/>
  <path fill="none" stroke="#000000" stroke-linecap="round" stroke-linejoin="round" d="M 1279.475 109.479 L 1317.038 109.479 C 1330.366 109.479 1335.22 101.551 1324.911 91.243 C 1314.603 80.935 1327.947 74.88 1340.674 74.88 C 1353.401 74.88 1366.729 80.935 1356.438 91.243 C 1346.129 101.552 1350.983 109.479 1364.311 109.479 L 1400.056 109.479 M 1400.056 -11.176 L 1400.056 26.424 C 1400.056 39.75 1407.983 44.606 1418.291 34.297 C 1428.582 23.986 1434.655 37.332 1434.655 50.059 C 1434.655 62.788 1428.582 76.114 1418.291 65.805 C 1407.983 55.514 1400.056 60.369 1400.056 73.696 L 1400.056 109.479 M 1400.226 -10.516 L 1278.775 -10.863 M 1279.468 109.546 L 1279.121 -11.21" transform="matrix(0, -1, 1, 0, 1307.54709, 1405.883087)"/>
  <path fill="none" stroke="#000000" stroke-linecap="round" stroke-linejoin="round" d="M 902.507 -445.453 L 864.907 -445.453 C 851.581 -445.453 846.724 -437.508 857.034 -427.217 C 867.345 -416.906 853.999 -410.852 841.272 -410.852 C 828.543 -410.852 815.217 -416.907 825.526 -427.217 C 835.817 -437.508 830.961 -445.453 817.635 -445.453 L 781.852 -445.453 M 781.852 -564.288 L 781.852 -528.507 C 781.852 -515.179 773.907 -510.324 763.616 -520.634 C 753.305 -530.925 747.253 -517.598 747.253 -504.87 C 747.253 -492.142 753.306 -478.816 763.616 -489.107 C 773.907 -499.416 781.852 -494.562 781.852 -481.234 L 781.852 -445.453 M 902.507 -564.288 L 864.907 -564.288 C 851.581 -564.288 846.724 -556.361 857.034 -546.053 C 867.345 -535.762 853.999 -529.689 841.272 -529.689 C 828.543 -529.689 815.217 -535.762 825.526 -546.053 C 835.817 -556.362 830.961 -564.288 817.635 -564.288 L 781.852 -564.288 M 901.866 -445.508 L 901.866 -564.493" transform="matrix(0, -1, 1, 0, 1312.55248, 337.207508)"/>
  <path fill="none" stroke="#000000" stroke-linecap="round" stroke-linejoin="round" d="M 1451.26 -28.899 L 1413.66 -28.899 C 1400.334 -28.899 1395.477 -20.954 1405.787 -10.663 C 1416.098 -0.352 1402.752 5.702 1390.025 5.702 C 1377.296 5.702 1363.97 -0.353 1374.279 -10.663 C 1384.57 -20.954 1379.714 -28.899 1366.388 -28.899 L 1330.605 -28.899 M 1330.605 -147.734 L 1330.605 -111.953 C 1330.605 -98.625 1322.66 -93.77 1312.369 -104.08 C 1302.058 -114.371 1296.006 -101.044 1296.006 -88.316 C 1296.006 -75.588 1302.059 -62.262 1312.369 -72.553 C 1322.66 -82.862 1330.605 -78.008 1330.605 -64.68 L 1330.605 -28.899 M 1451.26 -147.734 L 1413.66 -147.734 C 1400.334 -147.734 1395.477 -139.807 1405.787 -129.499 C 1416.098 -119.208 1402.752 -113.135 1390.025 -113.135 C 1377.296 -113.135 1363.97 -119.208 1374.279 -129.499 C 1384.57 -139.808 1379.714 -147.734 1366.388 -147.734 L 1330.605 -147.734 M 1450.619 -28.954 L 1450.619 -147.939" transform="matrix(-1, 0, 0, -1, 2747.266216, -142.237072)"/>
  <path fill="none" stroke="#000000" stroke-linecap="round" stroke-linejoin="round" d="M 987.069 -324.656 L 949.469 -324.656 C 936.143 -324.656 931.286 -316.711 941.596 -306.42 C 951.907 -296.109 938.561 -290.055 925.834 -290.055 C 913.105 -290.055 899.779 -296.11 910.088 -306.42 C 920.379 -316.711 915.523 -324.656 902.197 -324.656 L 866.414 -324.656 M 866.414 -443.491 L 866.414 -407.71 C 866.414 -394.382 858.469 -389.527 848.178 -399.837 C 837.867 -410.128 831.815 -396.801 831.815 -384.073 C 831.815 -371.345 837.868 -358.019 848.178 -368.31 C 858.469 -378.619 866.414 -373.765 866.414 -360.437 L 866.414 -324.656 M 987.069 -443.491 L 949.469 -443.491 C 936.143 -443.491 931.286 -435.564 941.596 -425.256 C 951.907 -414.965 938.561 -408.892 925.834 -408.892 C 913.105 -408.892 899.779 -414.965 910.088 -425.256 C 920.379 -435.565 915.523 -443.491 902.197 -443.491 L 866.414 -443.491 M 986.428 -324.711 L 986.428 -443.696"/>
  <path fill="none" stroke="#000000" stroke-linecap="round" stroke-linejoin="round" d="M 1538.52 88.075 L 1500.92 88.075 C 1487.594 88.075 1482.737 96.02 1493.047 106.311 C 1503.358 116.622 1490.012 122.676 1477.285 122.676 C 1464.556 122.676 1451.23 116.621 1461.539 106.311 C 1471.83 96.02 1466.974 88.075 1453.648 88.075 L 1417.865 88.075 M 1417.865 -30.76 L 1417.865 5.021 C 1417.865 18.349 1409.92 23.204 1399.629 12.894 C 1389.318 2.603 1383.266 15.93 1383.266 28.658 C 1383.266 41.386 1389.319 54.712 1399.629 44.421 C 1409.92 34.112 1417.865 38.966 1417.865 52.294 L 1417.865 88.075 M 1538.52 -30.76 L 1500.92 -30.76 C 1487.594 -30.76 1482.737 -22.833 1493.047 -12.525 C 1503.358 -2.234 1490.012 3.839 1477.285 3.839 C 1464.556 3.839 1451.23 -2.234 1461.539 -12.525 C 1471.83 -22.834 1466.974 -30.76 1453.648 -30.76 L 1417.865 -30.76 M 1537.879 88.02 L 1537.879 -30.965" transform="matrix(0, 1, -1, 0, 1506.748641, -1415.037597)"/>
  <path fill="none" stroke="#000000" stroke-linecap="round" stroke-linejoin="round" d="M 747.729 -443.575 L 783.51 -443.575 C 796.838 -443.575 801.693 -435.648 791.383 -425.339 C 781.092 -415.03 794.419 -408.975 807.147 -408.975 C 819.875 -408.975 833.201 -415.031 822.91 -425.339 C 812.601 -435.648 817.455 -443.575 830.783 -443.575 L 866.564 -443.575 M 866.273 -324.988 L 866.273 -360.697 C 866.273 -374.025 858.328 -378.879 848.037 -368.57 C 837.727 -358.261 831.673 -371.605 831.673 -384.333 C 831.673 -397.061 837.728 -410.388 848.037 -400.079 C 858.328 -389.787 866.273 -394.624 866.273 -407.969 L 866.273 -443.66 M 747.729 -324.903 L 783.51 -324.903 C 796.838 -324.903 801.693 -332.848 791.383 -343.139 C 781.092 -353.45 794.419 -359.502 807.147 -359.502 C 819.875 -359.502 833.201 -353.449 822.91 -343.139 C 812.601 -332.848 817.455 -324.903 830.783 -324.903 L 866.564 -324.903 M 747.454 -324.932 L 747.454 -360.641 C 747.454 -373.969 755.399 -378.823 765.69 -368.514 C 776.001 -358.205 782.055 -371.549 782.055 -384.277 C 782.055 -397.005 776 -410.332 765.69 -400.023 C 755.399 -389.731 747.454 -394.568 747.454 -407.913 L 747.454 -443.604"/>
  <path fill="none" stroke="#000000" stroke-linecap="round" stroke-linejoin="round" d="M 1416.996 3.902 L 1416.996 -31.807 C 1416.996 -45.135 1424.941 -49.989 1435.232 -39.68 C 1445.543 -29.371 1451.597 -42.715 1451.597 -55.443 C 1451.597 -68.171 1445.542 -81.498 1435.232 -71.189 C 1424.941 -60.897 1416.996 -65.734 1416.996 -79.079 L 1416.996 -114.77 M 1417.271 3.931 L 1453.052 3.931 C 1466.38 3.931 1471.235 -4.014 1460.925 -14.305 C 1450.634 -24.616 1463.961 -30.668 1476.689 -30.668 C 1489.417 -30.668 1502.743 -24.615 1492.452 -14.305 C 1482.143 -4.014 1486.997 3.931 1500.325 3.931 L 1536.106 3.931 M 1535.815 3.846 L 1535.815 -31.863 C 1535.815 -45.191 1527.87 -50.045 1517.579 -39.736 C 1507.269 -29.427 1501.215 -42.771 1501.215 -55.499 C 1501.215 -68.227 1507.27 -81.554 1517.579 -71.245 C 1527.87 -60.953 1535.815 -65.79 1535.815 -79.135 L 1535.815 -114.826 M 1417.043 -114.839 L 1452.824 -114.839 C 1466.152 -114.839 1471.007 -122.784 1460.697 -133.075 C 1450.406 -143.386 1463.733 -149.438 1476.461 -149.438 C 1489.189 -149.438 1502.515 -143.385 1492.224 -133.075 C 1481.915 -122.784 1486.769 -114.839 1500.097 -114.839 L 1535.878 -114.839"/>
  <path fill="none" stroke="#000000" stroke-linecap="round" stroke-linejoin="round" d="M 893.776 -152.536 L 893.776 -188.245 C 893.776 -201.573 901.721 -206.427 912.013 -196.118 C 922.323 -185.809 928.378 -199.153 928.378 -211.881 C 928.378 -224.609 922.323 -237.936 912.013 -227.627 C 901.721 -217.335 893.776 -222.172 893.776 -235.517 L 893.776 -271.208 M 894.052 -152.507 L 929.832 -152.507 C 943.16 -152.507 948.016 -160.452 937.706 -170.743 C 927.414 -181.054 940.742 -187.106 953.469 -187.106 C 966.198 -187.106 979.523 -181.053 969.232 -170.743 C 958.923 -160.452 963.777 -152.507 977.105 -152.507 L 1012.886 -152.507 M 893.724 -271.264 L 929.505 -271.264 C 942.833 -271.264 947.688 -279.209 937.378 -289.5 C 927.087 -299.811 940.414 -305.863 953.143 -305.863 C 965.87 -305.863 979.196 -299.81 968.906 -289.5 C 958.596 -279.209 963.451 -271.264 976.779 -271.264 L 1012.56 -271.264 M 1012.773 -271.335 L 1012.773 -235.554 C 1012.773 -222.226 1020.719 -217.371 1031.01 -227.681 C 1041.321 -237.972 1047.373 -224.645 1047.373 -211.917 C 1047.373 -199.189 1041.321 -185.863 1031.01 -196.154 C 1020.719 -206.463 1012.773 -201.609 1012.773 -188.281 L 1012.773 -152.5"/>
  <path fill="none" stroke="#000000" stroke-linecap="round" stroke-linejoin="round" d="M 1655.681 -80.952 L 1655.681 -116.661 C 1655.681 -129.989 1663.626 -134.843 1673.917 -124.534 C 1684.228 -114.225 1690.282 -127.569 1690.282 -140.297 C 1690.282 -153.025 1684.227 -166.352 1673.917 -156.043 C 1663.626 -145.751 1655.681 -150.588 1655.681 -163.933 L 1655.681 -199.624 M 1655.956 -80.923 L 1691.737 -80.923 C 1705.065 -80.923 1709.92 -88.868 1699.61 -99.159 C 1689.319 -109.47 1702.646 -115.522 1715.374 -115.522 C 1728.102 -115.522 1741.428 -109.469 1731.137 -99.159 C 1720.828 -88.868 1725.682 -80.923 1739.01 -80.923 L 1774.791 -80.923 M 1774.5 -81.008 L 1774.5 -116.717 C 1774.5 -130.045 1766.555 -134.899 1756.264 -124.59 C 1745.954 -114.281 1739.9 -127.625 1739.9 -140.353 C 1739.9 -153.081 1745.955 -166.408 1756.264 -156.099 C 1766.555 -145.807 1774.5 -150.644 1774.5 -163.989 L 1774.5 -199.68 M 1655.728 -199.693 L 1691.509 -199.693 C 1704.837 -199.693 1709.692 -207.638 1699.382 -217.929 C 1689.091 -228.24 1702.418 -234.292 1715.146 -234.292 C 1727.874 -234.292 1741.2 -228.239 1730.909 -217.929 C 1720.6 -207.638 1725.454 -199.693 1738.782 -199.693 L 1774.563 -199.693" transform="matrix(-1, 0, 0, -1, 3430.472148, -315.214988)"/>
  <path fill="none" stroke="#000000" stroke-linecap="round" stroke-linejoin="round" d="M 1777.879 87.485 L 1740.279 87.485 C 1726.953 87.485 1722.096 95.43 1732.406 105.721 C 1742.717 116.032 1729.371 122.086 1716.644 122.086 C 1703.915 122.086 1690.589 116.031 1700.898 105.721 C 1711.189 95.43 1706.333 87.485 1693.007 87.485 L 1657.224 87.485 M 1657.224 -31.35 L 1657.224 4.431 C 1657.224 17.759 1649.279 22.614 1638.988 12.304 C 1628.677 2.013 1622.625 15.34 1622.625 28.068 C 1622.625 40.796 1628.678 54.122 1638.988 43.831 C 1649.279 33.522 1657.224 38.376 1657.224 51.704 L 1657.224 87.485 M 1777.879 -31.35 L 1740.279 -31.35 C 1726.953 -31.35 1722.096 -23.423 1732.406 -13.115 C 1742.717 -2.824 1729.371 3.249 1716.644 3.249 C 1703.915 3.249 1690.589 -2.824 1700.898 -13.115 C 1711.189 -23.424 1706.333 -31.35 1693.007 -31.35 L 1657.224 -31.35 M 1777.238 87.43 L 1777.238 -31.555" transform="matrix(0, 1, -1, 0, 1745.517431, -1654.986468)"/>
  <path fill="none" stroke="#000000" stroke-linecap="round" stroke-linejoin="round" d="M 1639.787 20.018 L 1639.787 -15.691 C 1639.787 -29.019 1647.732 -33.873 1658.023 -23.564 C 1668.334 -13.255 1674.388 -26.599 1674.388 -39.327 C 1674.388 -52.055 1668.333 -65.382 1658.023 -55.073 C 1647.732 -44.781 1639.787 -49.618 1639.787 -62.963 L 1639.787 -98.654 M 1640.062 20.047 L 1675.843 20.047 C 1689.171 20.047 1694.026 12.102 1683.716 1.811 C 1673.425 -8.5 1686.752 -14.552 1699.48 -14.552 C 1712.208 -14.552 1725.534 -8.499 1715.243 1.811 C 1704.934 12.102 1709.788 20.047 1723.116 20.047 L 1758.897 20.047 M 1758.606 19.962 L 1758.606 -15.747 C 1758.606 -29.075 1750.661 -33.929 1740.37 -23.62 C 1730.06 -13.311 1724.006 -26.655 1724.006 -39.383 C 1724.006 -52.111 1730.061 -65.438 1740.37 -55.129 C 1750.661 -44.837 1758.606 -49.674 1758.606 -63.019 L 1758.606 -98.71 M 1639.834 -98.723 L 1675.615 -98.723 C 1688.943 -98.723 1693.798 -106.668 1683.488 -116.959 C 1673.197 -127.27 1686.524 -133.322 1699.252 -133.322 C 1711.98 -133.322 1725.306 -127.269 1715.015 -116.959 C 1704.706 -106.668 1709.56 -98.723 1722.888 -98.723 L 1758.669 -98.723" transform="matrix(0, -1, 1, 0, 1755.979554, 1642.704551)"/>
  <path fill="none" stroke="#000000" stroke-linecap="round" stroke-linejoin="round" d="M 1450.949 -147.998 L 1413.349 -147.998 C 1400.023 -147.998 1395.166 -140.053 1405.476 -129.762 C 1415.787 -119.451 1402.441 -113.397 1389.714 -113.397 C 1376.985 -113.397 1363.659 -119.452 1373.968 -129.762 C 1384.259 -140.053 1379.403 -147.998 1366.077 -147.998 L 1330.294 -147.998 M 1330.294 -266.833 L 1330.294 -231.052 C 1330.294 -217.724 1322.349 -212.869 1312.058 -223.179 C 1301.747 -233.47 1295.695 -220.143 1295.695 -207.415 C 1295.695 -194.687 1301.748 -181.361 1312.058 -191.652 C 1322.349 -201.961 1330.294 -197.107 1330.294 -183.779 L 1330.294 -147.998 M 1450.949 -266.833 L 1413.349 -266.833 C 1400.023 -266.833 1395.166 -258.906 1405.476 -248.598 C 1415.787 -238.307 1402.441 -232.234 1389.714 -232.234 C 1376.985 -232.234 1363.659 -238.307 1373.968 -248.598 C 1384.259 -258.907 1379.403 -266.833 1366.077 -266.833 L 1330.294 -266.833 M 1450.308 -148.053 L 1450.308 -267.038" transform="matrix(-1, 0, 0, -1, 2746.644027, -380.435007)"/>
  <path fill="none" stroke="#000000" stroke-linecap="round" stroke-linejoin="round" d="M 1571.659 -235.485 L 1534.059 -235.485 C 1520.733 -235.485 1515.876 -227.54 1526.186 -217.249 C 1536.497 -206.938 1523.151 -200.884 1510.424 -200.884 C 1497.695 -200.884 1484.369 -206.939 1494.678 -217.249 C 1504.969 -227.54 1500.113 -235.485 1486.787 -235.485 L 1451.004 -235.485 M 1451.004 -354.32 L 1451.004 -318.539 C 1451.004 -305.211 1443.059 -300.356 1432.768 -310.666 C 1422.457 -320.957 1416.405 -307.63 1416.405 -294.902 C 1416.405 -282.174 1422.458 -268.848 1432.768 -279.139 C 1443.059 -289.448 1451.004 -284.594 1451.004 -271.266 L 1451.004 -235.485 M 1571.659 -354.32 L 1534.059 -354.32 C 1520.733 -354.32 1515.876 -346.393 1526.186 -336.085 C 1536.497 -325.794 1523.151 -319.721 1510.424 -319.721 C 1497.695 -319.721 1484.369 -325.794 1494.678 -336.085 C 1504.969 -346.394 1500.113 -354.32 1486.787 -354.32 L 1451.004 -354.32 M 1571.018 -235.54 L 1571.018 -354.525" transform="matrix(0, -1, 1, 0, 1771.736503, 1216.327502)"/>
  <path fill="none" stroke="#000000" stroke-linecap="round" stroke-linejoin="round" d="M 1810.16 -235.485 L 1772.559 -235.485 C 1759.234 -235.485 1754.376 -227.54 1764.687 -217.249 C 1774.997 -206.938 1761.651 -200.884 1748.924 -200.884 C 1736.195 -200.884 1722.869 -206.939 1733.178 -217.249 C 1743.469 -227.54 1738.614 -235.485 1725.287 -235.485 L 1689.505 -235.485 M 1689.505 -354.32 L 1689.505 -318.539 C 1689.505 -305.211 1681.559 -300.356 1671.268 -310.666 C 1660.958 -320.957 1654.906 -307.63 1654.906 -294.902 C 1654.906 -282.174 1660.958 -268.848 1671.268 -279.139 C 1681.559 -289.448 1689.505 -284.594 1689.505 -271.266 L 1689.505 -235.485 M 1810.16 -354.32 L 1772.559 -354.32 C 1759.234 -354.32 1754.376 -346.393 1764.687 -336.085 C 1774.997 -325.794 1761.651 -319.721 1748.924 -319.721 C 1736.195 -319.721 1722.869 -325.794 1733.178 -336.085 C 1743.469 -346.394 1738.614 -354.32 1725.287 -354.32 L 1689.505 -354.32 M 1809.518 -235.54 L 1809.518 -354.525" transform="matrix(0, -1, 1, 0, 2010.23746, 1454.828456)"/>
  <path fill="none" stroke="#000000" stroke-linecap="round" stroke-linejoin="round" d="M 1877.579 -217.305 L 1915.142 -217.305 C 1928.47 -217.305 1933.324 -225.234 1923.015 -235.542 C 1912.707 -245.849 1926.051 -251.904 1938.778 -251.904 C 1951.505 -251.904 1964.833 -245.849 1954.542 -235.542 C 1944.233 -225.232 1949.087 -217.305 1962.415 -217.305 L 1998.16 -217.305 M 1998.16 -337.96 L 1998.16 -300.36 C 1998.16 -287.034 2006.087 -282.179 2016.395 -292.487 C 2026.686 -302.799 2032.759 -289.452 2032.759 -276.726 C 2032.759 -263.997 2026.686 -250.67 2016.395 -260.98 C 2006.087 -271.27 1998.16 -266.416 1998.16 -253.088 L 1998.16 -217.305 M 1998.33 -337.3 L 1876.879 -337.648 M 1877.572 -217.238 L 1877.225 -337.994" transform="matrix(0, 1, -1, 0, 1677.203112, -2232.435106)"/>
  <text x="1935.992" y="-289.799" style="fill: rgb(51, 51, 51); font-family: sans-serif; font-size: 14px; white-space: pre;">outer-corner</text>
  <g>
    <path fill="none" stroke="#000000" stroke-linecap="round" stroke-linejoin="round" d="M 1434.285 -97.278 L 1434.285 -132.987 C 1434.285 -146.315 1442.23 -151.169 1452.521 -140.86 C 1462.832 -130.551 1468.886 -143.895 1468.886 -156.623 C 1468.886 -169.351 1462.831 -182.678 1452.521 -172.369 C 1442.23 -162.077 1434.285 -166.914 1434.285 -180.259 L 1434.285 -215.95 M 1434.56 -97.249 L 1470.341 -97.249 C 1483.669 -97.249 1488.524 -105.194 1478.214 -115.485 C 1467.923 -125.796 1481.25 -131.848 1493.978 -131.848 C 1506.706 -131.848 1520.032 -125.795 1509.741 -115.485 C 1499.432 -105.194 1504.286 -97.249 1517.614 -97.249 L 1553.395 -97.249 M 1553.104 -97.334 L 1553.104 -133.043 C 1553.104 -146.371 1545.159 -151.225 1534.868 -140.916 C 1524.558 -130.607 1518.504 -143.951 1518.504 -156.679 C 1518.504 -169.407 1524.559 -182.734 1534.868 -172.425 C 1545.159 -162.133 1553.104 -166.97 1553.104 -180.315 L 1553.104 -216.006 M 1434.332 -216.019 L 1470.113 -216.019 C 1483.441 -216.019 1488.296 -223.964 1477.986 -234.255 C 1467.695 -244.566 1481.022 -250.618 1493.75 -250.618 C 1506.478 -250.618 1519.804 -244.565 1509.513 -234.255 C 1499.204 -223.964 1504.058 -216.019 1517.386 -216.019 L 1553.167 -216.019" transform="matrix(0, 1, -1, 0, 1319.906587, -1667.773606)"/>
    <text x="1457.487" y="-170.284" style="fill: rgb(51, 51, 51); font-family: sans-serif; font-size: 14px; white-space: pre;">inner-corner</text>
  </g>
  <path fill="none" stroke="#000000" stroke-linecap="round" stroke-linejoin="round" d="M 2014.727 -115.795 L 1977.127 -115.795 C 1963.801 -115.795 1958.944 -107.85 1969.254 -97.559 C 1979.565 -87.248 1966.219 -81.194 1953.492 -81.194 C 1940.763 -81.194 1927.437 -87.249 1937.746 -97.559 C 1948.037 -107.85 1943.181 -115.795 1929.855 -115.795 L 1894.072 -115.795 M 1894.072 -234.63 L 1894.072 -198.849 C 1894.072 -185.521 1886.127 -180.666 1875.836 -190.976 C 1865.525 -201.267 1859.473 -187.94 1859.473 -175.212 C 1859.473 -162.484 1865.526 -149.158 1875.836 -159.449 C 1886.127 -169.758 1894.072 -164.904 1894.072 -151.576 L 1894.072 -115.795 M 2014.727 -234.63 L 1977.127 -234.63 C 1963.801 -234.63 1958.944 -226.703 1969.254 -216.395 C 1979.565 -206.104 1966.219 -200.031 1953.492 -200.031 C 1940.763 -200.031 1927.437 -206.104 1937.746 -216.395 C 1948.037 -226.704 1943.181 -234.63 1929.855 -234.63 L 1894.072 -234.63 M 2014.086 -115.85 L 2014.086 -234.835"/>
  <path fill="none" stroke="#000000" stroke-linecap="round" stroke-linejoin="round" d="M 2017.035 2.078 L 1979.435 2.078 C 1966.109 2.078 1961.252 10.023 1971.562 20.314 C 1981.873 30.625 1968.527 36.679 1955.8 36.679 C 1943.071 36.679 1929.745 30.624 1940.054 20.314 C 1950.345 10.023 1945.489 2.078 1932.163 2.078 L 1896.38 2.078 M 1896.38 -116.757 L 1896.38 -80.976 C 1896.38 -67.648 1888.435 -62.793 1878.144 -73.103 C 1867.833 -83.394 1861.781 -70.067 1861.781 -57.339 C 1861.781 -44.611 1867.834 -31.285 1878.144 -41.576 C 1888.435 -51.885 1896.38 -47.031 1896.38 -33.703 L 1896.38 2.078 M 2017.035 -116.757 L 1979.435 -116.757 C 1966.109 -116.757 1961.252 -108.83 1971.562 -98.522 C 1981.873 -88.231 1968.527 -82.158 1955.8 -82.158 C 1943.071 -82.158 1929.745 -88.231 1940.054 -98.522 C 1950.345 -108.831 1945.489 -116.757 1932.163 -116.757 L 1896.38 -116.757 M 2016.394 2.023 L 2016.394 -116.962"/>
  <path fill="none" stroke="#000000" stroke-linecap="round" stroke-linejoin="round" d="M 1658.422 87.906 L 1620.822 87.906 C 1607.496 87.906 1602.639 95.851 1612.949 106.142 C 1623.26 116.453 1609.914 122.507 1597.187 122.507 C 1584.458 122.507 1571.132 116.452 1581.441 106.142 C 1591.732 95.851 1586.876 87.906 1573.55 87.906 L 1537.767 87.906 M 1537.767 -30.929 L 1537.767 4.852 C 1537.767 18.18 1529.822 23.035 1519.531 12.725 C 1509.22 2.434 1503.168 15.761 1503.168 28.489 C 1503.168 41.217 1509.221 54.543 1519.531 44.252 C 1529.822 33.943 1537.767 38.797 1537.767 52.125 L 1537.767 87.906 M 1658.422 -30.929 L 1620.822 -30.929 C 1607.496 -30.929 1602.639 -23.002 1612.949 -12.694 C 1623.26 -2.403 1609.914 3.67 1597.187 3.67 C 1584.458 3.67 1571.132 -2.403 1581.441 -12.694 C 1591.732 -23.003 1586.876 -30.929 1573.55 -30.929 L 1537.767 -30.929 M 1657.781 87.851 L 1657.781 -31.134" transform="matrix(0, 1, -1, 0, 1626.481414, -1535.108416)"/>
  <path fill="none" stroke="#000000" stroke-linecap="round" stroke-linejoin="round" d="M 1690.703 -235.064 L 1653.102 -235.064 C 1639.777 -235.064 1634.919 -227.119 1645.23 -216.828 C 1655.54 -206.517 1642.194 -200.463 1629.467 -200.463 C 1616.738 -200.463 1603.412 -206.518 1613.721 -216.828 C 1624.012 -227.119 1619.157 -235.064 1605.83 -235.064 L 1570.048 -235.064 M 1570.048 -353.899 L 1570.048 -318.118 C 1570.048 -304.79 1562.102 -299.935 1551.811 -310.245 C 1541.501 -320.536 1535.449 -307.209 1535.449 -294.481 C 1535.449 -281.753 1541.501 -268.427 1551.811 -278.718 C 1562.102 -289.027 1570.048 -284.173 1570.048 -270.845 L 1570.048 -235.064 M 1690.703 -353.899 L 1653.102 -353.899 C 1639.777 -353.899 1634.919 -345.972 1645.23 -335.664 C 1655.54 -325.373 1642.194 -319.3 1629.467 -319.3 C 1616.738 -319.3 1603.412 -325.373 1613.721 -335.664 C 1624.012 -345.973 1619.157 -353.899 1605.83 -353.899 L 1570.048 -353.899 M 1690.061 -235.119 L 1690.061 -354.104" transform="matrix(0, -1, 1, 0, 1890.359436, 1335.79241)"/>
  <g transform="matrix(-1, 0, 0, -1, 3074.384277, -230.541824)">
    <path fill="none" stroke="#000000" stroke-linecap="round" stroke-linejoin="round" d="M 1434.285 -97.278 L 1434.285 -132.987 C 1434.285 -146.315 1442.23 -151.169 1452.521 -140.86 C 1462.832 -130.551 1468.886 -143.895 1468.886 -156.623 C 1468.886 -169.351 1462.831 -182.678 1452.521 -172.369 C 1442.23 -162.077 1434.285 -166.914 1434.285 -180.259 L 1434.285 -215.95 M 1434.56 -97.249 L 1470.341 -97.249 C 1483.669 -97.249 1488.524 -105.194 1478.214 -115.485 C 1467.923 -125.796 1481.25 -131.848 1493.978 -131.848 C 1506.706 -131.848 1520.032 -125.795 1509.741 -115.485 C 1499.432 -105.194 1504.286 -97.249 1517.614 -97.249 L 1553.395 -97.249 M 1553.104 -97.334 L 1553.104 -133.043 C 1553.104 -146.371 1545.159 -151.225 1534.868 -140.916 C 1524.558 -130.607 1518.504 -143.951 1518.504 -156.679 C 1518.504 -169.407 1524.559 -182.734 1534.868 -172.425 C 1545.159 -162.133 1553.104 -166.97 1553.104 -180.315 L 1553.104 -216.006 M 1434.332 -216.019 L 1470.113 -216.019 C 1483.441 -216.019 1488.296 -223.964 1477.986 -234.255 C 1467.695 -244.566 1481.022 -250.618 1493.75 -250.618 C 1506.478 -250.618 1519.804 -244.565 1509.513 -234.255 C 1499.204 -223.964 1504.058 -216.019 1517.386 -216.019 L 1553.167 -216.019" transform="matrix(0, 1, -1, 0, 1319.906587, -1667.773606)"/>
    <text x="1457.487" y="-170.284" style="fill: rgb(51, 51, 51); font-family: sans-serif; font-size: 14px; white-space: pre;">inner-corner</text>
  </g>
  <g>
    <path fill="none" stroke="#000000" stroke-linecap="round" stroke-linejoin="round" d="M 1482.01 -420.715 L 1482.01 -456.424 C 1482.01 -469.752 1489.955 -474.606 1500.246 -464.297 C 1510.557 -453.988 1516.611 -467.332 1516.611 -480.06 C 1516.611 -492.788 1510.556 -506.115 1500.246 -495.806 C 1489.955 -485.514 1482.01 -490.351 1482.01 -503.696 L 1482.01 -539.387 M 1482.285 -420.686 L 1518.066 -420.686 C 1531.394 -420.686 1536.249 -428.631 1525.939 -438.922 C 1515.648 -449.233 1528.975 -455.285 1541.703 -455.285 C 1554.431 -455.285 1567.757 -449.232 1557.466 -438.922 C 1547.157 -428.631 1552.011 -420.686 1565.339 -420.686 L 1601.12 -420.686 M 1481.958 -539.443 L 1517.739 -539.443 C 1531.067 -539.443 1535.922 -547.388 1525.612 -557.679 C 1515.321 -567.99 1528.648 -574.042 1541.376 -574.042 C 1554.104 -574.042 1567.43 -567.989 1557.139 -557.679 C 1546.83 -547.388 1551.684 -539.443 1565.012 -539.443 L 1600.793 -539.443 M 1601.008 -539.514 L 1601.008 -503.733 C 1601.008 -490.405 1608.953 -485.55 1619.244 -495.86 C 1629.555 -506.151 1635.607 -492.824 1635.607 -480.096 C 1635.607 -467.368 1629.554 -454.042 1619.244 -464.333 C 1608.953 -474.642 1601.008 -469.788 1601.008 -456.46 L 1601.008 -420.679"/>
    <text x="1525.419" y="-480.526" style="fill: rgb(51, 51, 51); font-family: sans-serif; font-size: 14px; white-space: pre;">inner-mid</text>
  </g>
  <g transform="matrix(0, 1, -1, 0, 1116.415527, -1717.194702)">
    <path fill="none" stroke="#000000" stroke-linecap="round" stroke-linejoin="round" d="M 1482.01 -420.715 L 1482.01 -456.424 C 1482.01 -469.752 1489.955 -474.606 1500.246 -464.297 C 1510.557 -453.988 1516.611 -467.332 1516.611 -480.06 C 1516.611 -492.788 1510.556 -506.115 1500.246 -495.806 C 1489.955 -485.514 1482.01 -490.351 1482.01 -503.696 L 1482.01 -539.387 M 1482.285 -420.686 L 1518.066 -420.686 C 1531.394 -420.686 1536.249 -428.631 1525.939 -438.922 C 1515.648 -449.233 1528.975 -455.285 1541.703 -455.285 C 1554.431 -455.285 1567.757 -449.232 1557.466 -438.922 C 1547.157 -428.631 1552.011 -420.686 1565.339 -420.686 L 1601.12 -420.686 M 1481.958 -539.443 L 1517.739 -539.443 C 1531.067 -539.443 1535.922 -547.388 1525.612 -557.679 C 1515.321 -567.99 1528.648 -574.042 1541.376 -574.042 C 1554.104 -574.042 1567.43 -567.989 1557.139 -557.679 C 1546.83 -547.388 1551.684 -539.443 1565.012 -539.443 L 1600.793 -539.443 M 1601.008 -539.514 L 1601.008 -503.733 C 1601.008 -490.405 1608.953 -485.55 1619.244 -495.86 C 1629.555 -506.151 1635.607 -492.824 1635.607 -480.096 C 1635.607 -467.368 1629.554 -454.042 1619.244 -464.333 C 1608.953 -474.642 1601.008 -469.788 1601.008 -456.46 L 1601.008 -420.679"/>
    <text x="1525.419" y="-480.526" style="fill: rgb(51, 51, 51); font-family: sans-serif; font-size: 14px; white-space: pre;">inner-mid</text>
  </g>
  <path fill="none" stroke="#000000" stroke-linecap="round" stroke-linejoin="round" d="M 1897.187 87.515 L 1859.587 87.515 C 1846.261 87.515 1841.404 95.46 1851.714 105.751 C 1862.025 116.062 1848.679 122.116 1835.952 122.116 C 1823.223 122.116 1809.897 116.061 1820.206 105.751 C 1830.497 95.46 1825.641 87.515 1812.315 87.515 L 1776.532 87.515 M 1776.532 -31.32 L 1776.532 4.461 C 1776.532 17.789 1768.587 22.644 1758.296 12.334 C 1747.985 2.043 1741.933 15.37 1741.933 28.098 C 1741.933 40.826 1747.986 54.152 1758.296 43.861 C 1768.587 33.552 1776.532 38.406 1776.532 51.734 L 1776.532 87.515 M 1897.187 -31.32 L 1859.587 -31.32 C 1846.261 -31.32 1841.404 -23.393 1851.714 -13.085 C 1862.025 -2.794 1848.679 3.279 1835.952 3.279 C 1823.223 3.279 1809.897 -2.794 1820.206 -13.085 C 1830.497 -23.394 1825.641 -31.32 1812.315 -31.32 L 1776.532 -31.32 M 1896.546 87.46 L 1896.546 -31.525" transform="matrix(0, 1, -1, 0, 1864.855563, -1774.264578)"/>
  <path fill="none" stroke="#000000" stroke-linecap="round" stroke-linejoin="round" d="M 1929.468 -235.455 L 1891.867 -235.455 C 1878.542 -235.455 1873.684 -227.51 1883.995 -217.219 C 1894.305 -206.908 1880.959 -200.854 1868.232 -200.854 C 1855.503 -200.854 1842.177 -206.909 1852.486 -217.219 C 1862.777 -227.51 1857.922 -235.455 1844.595 -235.455 L 1808.813 -235.455 M 1808.813 -354.29 L 1808.813 -318.509 C 1808.813 -305.181 1800.867 -300.326 1790.576 -310.636 C 1780.266 -320.927 1774.214 -307.6 1774.214 -294.872 C 1774.214 -282.144 1780.266 -268.818 1790.576 -279.109 C 1800.867 -289.418 1808.813 -284.564 1808.813 -271.236 L 1808.813 -235.455 M 1929.468 -354.29 L 1891.867 -354.29 C 1878.542 -354.29 1873.684 -346.363 1883.995 -336.055 C 1894.305 -325.764 1880.959 -319.691 1868.232 -319.691 C 1855.503 -319.691 1842.177 -325.764 1852.486 -336.055 C 1862.777 -346.364 1857.922 -354.29 1844.595 -354.29 L 1808.813 -354.29 M 1928.826 -235.51 L 1928.826 -354.495" transform="matrix(0, -1, 1, 0, 2129.51556, 1574.166555)"/>
  <g transform="matrix(-1, 0, 0, -1, 2015.711182, 4.563087)">
    <g>
      <path fill="none" stroke="#000000" stroke-linecap="round" stroke-linejoin="round" d="M 120.807 239.816 L 120.807 204.107 C 120.807 190.779 128.752 185.925 139.043 196.234 C 149.354 206.543 155.408 193.199 155.408 180.471 C 155.408 167.743 149.353 154.416 139.043 164.725 C 128.752 175.017 120.807 170.18 120.807 156.835 L 120.807 121.144 M 121.082 239.845 L 156.863 239.845 C 170.191 239.845 175.046 231.9 164.736 221.609 C 154.445 211.298 167.772 205.246 180.5 205.246 C 193.228 205.246 206.554 211.299 196.263 221.609 C 185.954 231.9 190.808 239.845 204.136 239.845 L 239.917 239.845 M 120.755 121.088 L 156.536 121.088 C 169.864 121.088 174.719 113.143 164.409 102.852 C 154.118 92.541 167.445 86.489 180.173 86.489 C 192.901 86.489 206.227 92.542 195.936 102.852 C 185.627 113.143 190.481 121.088 203.809 121.088 L 239.59 121.088 M 239.805 121.017 L 239.805 156.798 C 239.805 170.126 247.75 174.981 258.041 164.671 C 268.352 154.38 274.404 167.707 274.404 180.435 C 274.404 193.163 268.351 206.489 258.041 196.198 C 247.75 185.889 239.805 190.743 239.805 204.071 L 239.805 239.852"/>
      <text x="162.287" y="178.747" style="fill: rgb(51, 51, 51); font-family: sans-serif; font-size: 14px; white-space: pre;">inner-mid</text>
    </g>
  </g>
  <g transform="matrix(-1, 0, 0, -1, 1999.456055, 105.612404)">
    <path fill="none" stroke="#000000" stroke-linecap="round" stroke-linejoin="round" d="M 120.807 239.816 L 120.807 204.107 C 120.807 190.779 128.752 185.925 139.043 196.234 C 149.354 206.543 155.408 193.199 155.408 180.471 C 155.408 167.743 149.353 154.416 139.043 164.725 C 128.752 175.017 120.807 170.18 120.807 156.835 L 120.807 121.144 M 121.082 239.845 L 156.863 239.845 C 170.191 239.845 175.046 231.9 164.736 221.609 C 154.445 211.298 167.772 205.246 180.5 205.246 C 193.228 205.246 206.554 211.299 196.263 221.609 C 185.954 231.9 190.808 239.845 204.136 239.845 L 239.917 239.845 M 239.626 239.76 L 239.626 204.051 C 239.626 190.723 231.681 185.869 221.39 196.178 C 211.08 206.487 205.026 193.143 205.026 180.415 C 205.026 167.687 211.081 154.36 221.39 164.669 C 231.681 174.961 239.626 170.124 239.626 156.779 L 239.626 121.088 M 120.854 121.075 L 156.635 121.075 C 169.963 121.075 174.818 113.13 164.508 102.839 C 154.217 92.528 167.544 86.476 180.272 86.476 C 193 86.476 206.326 92.529 196.035 102.839 C 185.726 113.13 190.58 121.075 203.908 121.075 L 239.689 121.075" transform="matrix(0, 1, -1, 0, 343.522489, -17.201506)"/>
    <text x="142.986" y="166.081" style="fill: rgb(51, 51, 51); font-family: sans-serif; font-size: 14px; white-space: pre;">inner-corner</text>
  </g>
</svg>