<?xml version="1.0" encoding="utf-8"?>
<svg version="1.1" id="SVGs" width="361" height="361" viewBox="0 0 361 361" overflow="visible" enable-background="new 0 0 361 361" xmlns="http://www.w3.org/2000/svg">
  <path fill="none" stroke="#000000" stroke-linecap="round" stroke-linejoin="round" d="M 121.082 239.845 L 156.863 239.845 C 170.191 239.845 175.046 231.9 164.736 221.609 C 154.445 211.298 167.772 205.246 180.5 205.246 C 193.228 205.246 206.554 211.299 196.263 221.609 C 185.954 231.9 190.808 239.845 204.136 239.845 L 239.917 239.845"/>
  <path fill="none" stroke="#000000" stroke-linecap="round" stroke-linejoin="round" d="M 239.937 239.747 L 239.937 204.038 C 239.937 190.71 247.882 185.856 258.173 196.165 C 268.484 206.474 274.538 193.13 274.538 180.402 C 274.538 167.674 268.483 154.347 258.173 164.656 C 247.882 174.948 239.937 170.111 239.937 156.766 L 239.937 121.075"/>
  <line style="stroke: rgb(0, 0, 0);" x1="120.84476470947266" y1="121.0420913696289" x2="239.97789001464844" y2="121.02622985839844"/>
  <line style="stroke: rgb(0, 0, 0);" x1="121.25983428955078" y1="120.98043060302734" x2="121.41719055175781" y2="239.8023223876953"/>
</svg>